<svg width="86" height="68" viewBox="0 0 86 68" fill="none" xmlns="http://www.w3.org/2000/svg">
<path d="M82.2091 53.7401C81.6753 53.7401 81.1689 53.6101 80.6898 53.3501C80.2108 53.0832 79.8344 52.7273 79.5606 52.2825C79.5059 52.1867 79.4785 52.0737 79.4785 51.9437C79.4785 51.7316 79.5298 51.5639 79.6325 51.4407C79.742 51.3175 79.8857 51.256 80.0636 51.256C80.2142 51.256 80.3442 51.2867 80.4537 51.3483C80.5632 51.4099 80.659 51.5092 80.7411 51.646C80.8712 51.865 81.073 52.0464 81.3468 52.1901C81.6274 52.327 81.9148 52.3954 82.2091 52.3954C83.1945 52.3954 83.6873 52.0532 83.6873 51.3689C83.6873 51.0746 83.5641 50.8077 83.3177 50.5682C83.0782 50.3287 82.695 50.0857 82.168 49.8394C81.5452 49.5519 81.0594 49.2919 80.7103 49.0592C80.3682 48.8197 80.1218 48.5665 79.9712 48.2996C79.8207 48.0258 79.7454 47.7042 79.7454 47.3346C79.7454 46.9103 79.8583 46.5339 80.0842 46.2055C80.31 45.8701 80.6214 45.6101 81.0183 45.4253C81.4152 45.2337 81.86 45.1379 82.3528 45.1379C82.9003 45.1379 83.4033 45.2611 83.8618 45.5074C84.3203 45.7469 84.6693 46.0754 84.9088 46.4929C84.9773 46.6024 85.0115 46.7153 85.0115 46.8316C85.0115 46.9959 84.9567 47.1396 84.8472 47.2628C84.7446 47.386 84.6146 47.4476 84.4571 47.4476C84.3408 47.4476 84.2211 47.4168 84.0979 47.3552C83.9747 47.2867 83.8789 47.2046 83.8104 47.1088C83.653 46.8898 83.4546 46.729 83.2151 46.6263C82.9824 46.5237 82.695 46.4724 82.3528 46.4724C81.949 46.4724 81.6308 46.5476 81.3981 46.6982C81.1723 46.8419 81.0594 47.0541 81.0594 47.3346C81.0594 47.5057 81.1004 47.6494 81.1825 47.7658C81.2715 47.8753 81.4186 47.9882 81.6239 48.1045C81.8361 48.2209 82.1817 48.3885 82.6607 48.6075C83.4956 48.9976 84.0944 49.4048 84.4571 49.8291C84.8267 50.2534 85.0115 50.7666 85.0115 51.3689C85.0115 51.8411 84.8951 52.2585 84.6625 52.6212C84.4298 52.9771 84.1013 53.2543 83.677 53.4527C83.2527 53.6443 82.7634 53.7401 82.2091 53.7401Z" fill="#1F4987"/>
<path d="M74.9463 53.8428C74.1524 53.8428 73.4373 53.6615 72.8008 53.2987C72.1644 52.9292 71.6614 52.4159 71.2919 51.759C70.9292 51.102 70.7478 50.3526 70.7478 49.5109C70.7478 48.6691 70.9292 47.9198 71.2919 47.2628C71.6614 46.6058 72.1644 46.096 72.8008 45.7333C73.4373 45.3637 74.1524 45.179 74.9463 45.179C75.7401 45.179 76.4553 45.3637 77.0917 45.7333C77.7282 46.096 78.2277 46.6058 78.5904 47.2628C78.9531 47.9198 79.1345 48.6691 79.1345 49.5109C79.1345 50.3526 78.9531 51.102 78.5904 51.759C78.2277 52.4159 77.7282 52.9292 77.0917 53.2987C76.4553 53.6615 75.7401 53.8428 74.9463 53.8428ZM74.9463 52.5186C75.4938 52.5186 75.9831 52.3954 76.4142 52.149C76.8522 51.8958 77.1944 51.5434 77.4407 51.0917C77.6871 50.6332 77.8103 50.1063 77.8103 49.5109C77.8103 48.9155 77.6871 48.392 77.4407 47.9403C77.1944 47.4818 76.8522 47.1293 76.4142 46.883C75.9831 46.6298 75.4938 46.5032 74.9463 46.5032C74.3988 46.5032 73.9061 46.6298 73.4681 46.883C73.0301 47.1293 72.6879 47.4818 72.4416 47.9403C72.1952 48.392 72.072 48.9155 72.072 49.5109C72.072 50.1063 72.1952 50.6332 72.4416 51.0917C72.6879 51.5434 73.0301 51.8958 73.4681 52.149C73.9061 52.3954 74.3988 52.5186 74.9463 52.5186Z" fill="#1F4987"/>
<path d="M63.5195 53.7094C63.3416 53.7094 63.1876 53.6478 63.0576 53.5246C62.9276 53.4014 62.8625 53.2577 62.8625 53.0935V45.8667C62.8625 45.6888 62.931 45.5348 63.0679 45.4048C63.2116 45.2679 63.3792 45.1995 63.5708 45.1995C63.783 45.1995 63.9609 45.2919 64.1046 45.4767L68.724 51.1636L68.8061 51.3278V45.7333C68.8061 45.569 68.8711 45.4253 69.0012 45.3021C69.1312 45.179 69.2852 45.1174 69.4631 45.1174C69.641 45.1174 69.795 45.179 69.925 45.3021C70.0619 45.4253 70.1303 45.569 70.1303 45.7333V52.9087C70.1303 53.0866 70.0585 53.244 69.9148 53.3809C69.771 53.5109 69.6034 53.5759 69.4118 53.5759C69.316 53.5759 69.2201 53.552 69.1243 53.5041C69.0285 53.4493 68.9464 53.3809 68.878 53.2988L64.2689 47.6426L64.1868 47.4681V53.0935C64.1868 53.2577 64.1183 53.4014 63.9815 53.5246C63.8514 53.6478 63.6975 53.7094 63.5195 53.7094Z" fill="#1F4987"/>
<path d="M62.1902 52.7752C62.2244 52.8573 62.2415 52.9224 62.2415 52.9703C62.2415 53.1482 62.1799 53.3022 62.0567 53.4322C61.9404 53.5554 61.7932 53.617 61.6153 53.617C61.4921 53.617 61.3758 53.5828 61.2663 53.5143C61.1636 53.4459 61.0884 53.3535 61.0405 53.2372L60.2398 51.1636H57.1089L56.3185 53.2474C56.2774 53.3569 56.2021 53.4459 56.0926 53.5143C55.99 53.5828 55.8736 53.617 55.7436 53.617C55.5657 53.617 55.4185 53.5554 55.3022 53.4322C55.1859 53.309 55.1277 53.1619 55.1277 52.9908C55.1277 52.936 55.1448 52.8676 55.179 52.7855L58.1457 45.5793C58.2004 45.4493 58.2723 45.35 58.3612 45.2816C58.457 45.2132 58.5563 45.179 58.6589 45.179C58.7753 45.179 58.8848 45.2132 58.9874 45.2816C59.0901 45.35 59.1688 45.4527 59.2235 45.5896L62.1902 52.7752ZM58.5871 47.3039L57.5503 50.0241H59.7984L58.7513 47.3039L58.6692 47.0164L58.5871 47.3039Z" fill="#1F4987"/>
<path d="M38.331 7.12976C38.6552 7.14985 38.9343 6.90332 38.9544 6.57913C38.9745 6.25493 38.728 5.97584 38.4038 5.95575C36.9903 5.86816 35.8308 5.85776 34.9979 5.99146C34.6772 6.04295 34.4589 6.34467 34.5104 6.66538C34.5619 6.98609 34.8636 7.20434 35.1843 7.15286C35.8774 7.04161 36.9228 7.0425 38.331 7.12976Z" fill="#133F7F"/>
<path d="M38.5372 8.98824C38.7547 9.01617 38.9143 8.93637 38.9681 8.75222C39.0219 8.56807 38.9162 8.37517 38.7321 8.32137C38.4462 8.23785 37.9015 8.29484 37.6231 8.2991C37.3462 8.30335 37.0802 8.33796 36.893 8.39222C36.7087 8.44563 36.6027 8.63831 36.6561 8.82257C36.7095 9.00684 36.9021 9.11292 37.0864 9.05951C37.1967 9.02755 37.3973 8.9974 37.6337 8.99378C37.8685 8.99018 38.2276 8.94855 38.5372 8.98824Z" fill="#133F7F"/>
<path fill-rule="evenodd" clip-rule="evenodd" d="M40.9489 5.38627C40.9489 5.38627 44.9222 4.81945 46.1435 4.81143C47.3647 4.80341 53.8396 5.39175 54.8359 6.48995C54.9884 6.65801 54.9884 6.9151 54.836 7.08318C53.8399 8.18151 47.5703 8.7504 46.1695 8.75963C44.7686 8.76885 40.9491 8.18942 40.9491 8.18942C40.8028 8.1571 40.7405 8.05465 40.6985 7.87745C40.6985 7.87745 40.5891 7.4095 40.5541 7.00755L45.0053 6.97825C45.0053 6.97825 45.7365 6.88837 45.7356 6.76127C45.7348 6.63416 45.0025 6.55392 45.0025 6.55392L40.553 6.5832C40.5866 6.17795 40.6983 5.69828 40.6983 5.69828C40.7314 5.52531 40.8025 5.41862 40.9489 5.38627Z" fill="#133F7F"/>
<path d="M44.4227 10.2977L45.7028 9.10833C45.7028 9.10833 44.1074 8.99993 43.0888 8.89298C42.2432 8.80421 40.9282 8.62544 40.9282 8.62544C40.9282 8.62544 39.981 9.0737 38.7503 10.335L44.4227 10.2977Z" fill="#133F7F"/>
<path d="M44.3766 3.29647L45.6722 4.46886C45.6722 4.46886 44.0785 4.59825 43.0613 4.7186C42.217 4.81849 40.9045 5.01456 40.9045 5.01456C40.9045 5.01456 39.9514 4.57881 38.7042 3.33381L44.3766 3.29647Z" fill="#133F7F"/>
<path fill-rule="evenodd" clip-rule="evenodd" d="M23.4355 17.5154C24.0437 16.4009 25.212 15.7076 26.4817 15.7076H55.4314C57.2282 15.7076 58.6849 17.1642 58.6849 18.9611C58.6849 20.7579 57.2282 22.2146 55.4314 22.2146H28.2837L25.5308 27.2585C27.7799 26.694 30.3822 26.4571 33.3871 26.7275C35.1767 26.8886 36.4969 28.4699 36.3359 30.2595C36.1748 32.0491 34.5935 33.3694 32.8039 33.2083C27.6047 32.7404 24.4449 34.2695 22.425 35.8711C21.3715 36.7064 20.5617 37.6166 19.9011 38.4416C19.6751 38.7237 19.5015 38.9503 19.3243 39.1816C19.2164 39.3225 19.1071 39.4651 18.9839 39.623L18.9693 39.6417C18.7464 39.9276 18.3201 40.4743 17.8186 40.8817C16.6121 41.862 14.8808 41.8519 13.6859 40.8575C12.491 39.8632 12.1664 38.1625 12.9112 36.798L23.4355 17.5154Z" fill="url(#paint0_radial_903_3)"/>
<path d="M34.191 8.37559C34.1864 8.40371 34.1814 8.43167 34.176 8.45947C34.0841 8.93452 33.5995 9.18181 33.1168 9.14876C32.6848 9.1192 32.2516 9.1023 31.8176 9.09817L30.9089 9.08953C30.5877 9.08648 30.3248 9.34441 30.3217 9.66564C30.3187 9.98687 30.5766 10.2498 30.8978 10.2528L31.8065 10.2615C32.1196 10.2644 32.1915 10.6565 31.8843 10.7171C31.6118 10.7709 31.295 10.7915 30.8271 10.7912C19.5356 10.7826 6.42315 23.7627 10.645 43.122C10.9896 44.7021 9.98798 46.2624 8.40782 46.607C6.82766 46.9516 5.333 45.9343 4.92273 44.3699C-1.06922 21.5218 16.4898 2.50357 31.7754 5.01169C32.1934 5.08028 32.5761 5.23421 32.9087 5.45275C33.1331 5.60029 32.99 5.89824 32.7225 5.87338C31.046 5.71759 29.3537 5.75352 27.6785 5.98291L26.7782 6.1062C26.4599 6.14978 26.2373 6.44312 26.2808 6.7614C26.3244 7.07967 26.6178 7.30236 26.936 7.25877L27.8364 7.13549C29.6814 6.88284 31.5485 6.8779 33.3883 7.11812C33.8528 7.17877 34.2446 7.53141 34.2283 7.99958C34.224 8.12397 34.2117 8.2495 34.191 8.37559Z" fill="url(#paint1_radial_903_3)"/>
<path fill-rule="evenodd" clip-rule="evenodd" d="M39.1393 32.5341C40.1901 31.0766 42.2235 30.7469 43.6811 31.7977C46.287 33.6765 48.4135 36.1013 49.8759 38.8986C51.3391 41.6975 52.0929 44.7851 52.0647 47.9189C52.0365 51.0528 51.2273 54.1265 49.7141 56.899C48.2017 59.6701 46.0322 62.057 43.3931 63.8898C40.7549 65.722 37.7122 66.956 34.5039 67.5115C31.2957 68.067 27.9923 67.9321 24.845 67.1157C21.6973 66.2991 18.7754 64.8188 16.3116 62.7726C13.8469 60.7257 11.9029 58.1635 10.6516 55.2724C9.93789 53.6234 10.6961 51.708 12.3451 50.9943C13.9941 50.2806 15.9095 51.0388 16.6233 52.6878C17.4543 54.6079 18.763 56.3501 20.4689 57.7668C22.1756 59.1843 24.2301 60.2338 26.4788 60.8172C28.7278 61.4005 31.0956 61.4979 33.3937 61.0999C35.6916 60.702 37.8422 59.8226 39.6814 58.5452C41.5199 57.2685 42.9918 55.6334 44.0024 53.7817C45.0121 51.9316 45.5395 49.9064 45.558 47.8603C45.5764 45.8143 45.0855 43.7803 44.1094 41.9132C43.1325 40.0446 41.6906 38.3844 39.8757 37.0759C38.4182 36.0251 38.0884 33.9916 39.1393 32.5341Z" fill="url(#paint2_linear_903_3)"/>
<defs>
<radialGradient id="paint0_radial_903_3" cx="0" cy="0" r="1" gradientUnits="userSpaceOnUse" gradientTransform="translate(47.0421 8.42013) rotate(123.739) scale(25.6162 40.7989)">
<stop stop-color="#F1BE0A"/>
<stop offset="1" stop-color="#FFCB12"/>
</radialGradient>
<radialGradient id="paint1_radial_903_3" cx="0" cy="0" r="1" gradientUnits="userSpaceOnUse" gradientTransform="translate(32.6015 1.63805) rotate(96.3836) scale(57.8966 71.5014)">
<stop offset="0.00208925" stop-color="#0E3A7B"/>
<stop offset="0.464719" stop-color="#1F4987"/>
<stop offset="1" stop-color="#65C86B"/>
</radialGradient>
<linearGradient id="paint2_linear_903_3" x1="47.5776" y1="55.603" x2="48.9658" y2="37.2322" gradientUnits="userSpaceOnUse">
<stop stop-color="#63C46C"/>
<stop offset="1" stop-color="#FFCB12"/>
</linearGradient>
</defs>
</svg>
