<svg width="241" height="60" viewBox="0 0 241 60" fill="none" xmlns="http://www.w3.org/2000/svg">
<path d="M58.9689 29.1619L58.9503 29.148C58.8996 29.1062 58.8388 29.0597 58.7691 29.0226C58.5369 28.8832 58.2628 28.8089 57.9706 28.8089H51.2537C50.7469 18.1994 42.4279 9.59653 31.9294 8.65821V5.92222C31.9294 5.76893 31.8969 5.62493 31.8365 5.48093L31.7441 5.25796L31.6739 5.09074L31.5578 4.83525L31.3906 4.44506L30.4755 2.28042C30.3919 2.09461 30.2061 1.96455 29.997 1.96455C29.7885 1.97849 29.6068 2.08532 29.5232 2.28042L28.4688 4.65874V1.26778C28.4688 1.04946 28.6453 0.872936 28.8636 0.872936H31.1449C31.3674 0.872936 31.5439 1.04946 31.5439 1.26778V4.78416L31.66 4.79345C32.7795 4.86777 33.885 5.01177 34.9441 5.2208L35.0561 5.24403L35.9707 1.85771C35.9986 1.75552 36.0636 1.66726 36.157 1.61152C36.2494 1.56042 36.3562 1.54649 36.4584 1.579L38.6602 2.16893C38.8693 2.22468 38.9947 2.44764 38.939 2.65667L38.0239 6.04764L38.1312 6.0848C39.1898 6.44712 40.2215 6.87912 41.2058 7.37151L41.3126 7.42261L43.0824 4.38932C43.1382 4.30106 43.2223 4.23603 43.3286 4.20816C43.4262 4.18029 43.5335 4.19422 43.6259 4.24532L45.5955 5.39732C45.6884 5.45306 45.7487 5.53667 45.7771 5.63887C45.8091 5.74106 45.7906 5.8479 45.7399 5.9408L43.9697 8.97409L44.0672 9.03447C44.9033 9.60118 45.7348 10.2515 46.5384 10.9576L46.6313 11.0319L49.1165 8.54673C49.2698 8.39344 49.5253 8.39344 49.6785 8.54673L51.2904 10.1586C51.4437 10.3165 51.4437 10.5674 51.2904 10.7207L48.8006 13.2058L48.8796 13.2941C49.6321 14.1581 50.3289 15.0639 50.9467 16.0068L51.0163 16.0998L54.0682 14.3625C54.1569 14.3114 54.268 14.2974 54.3706 14.3253C54.4723 14.3532 54.556 14.4182 54.6071 14.5111L55.7358 16.4899C55.7916 16.5828 55.8055 16.6897 55.773 16.7919C55.7456 16.8987 55.6801 16.9823 55.5872 17.0334L52.54 18.7707L52.5915 18.8776C53.0509 19.8159 53.4602 20.8285 53.8086 21.8737L53.8453 21.9852L57.2455 21.0979C57.4499 21.0375 57.6729 21.1676 57.7286 21.3813L58.3092 23.5831C58.365 23.7968 58.2349 24.0151 58.0259 24.0708L54.6256 24.9581L54.6489 25.0742C54.844 26.0868 54.9787 27.132 55.0437 28.1771L55.053 28.2933H58.5647C58.7877 28.2933 58.9689 28.4698 58.9689 28.6928V29.1619ZM58.9689 30.9689C58.9689 31.1872 58.7877 31.3684 58.5647 31.3684H57.952C57.9335 31.3266 57.9191 31.2848 57.8958 31.2476C58.2117 31.243 58.5183 31.15 58.7691 30.9921C58.8388 30.9503 58.8945 30.9039 58.9503 30.8481C58.9549 30.8481 58.9642 30.8388 58.9689 30.8342V30.9689ZM51.2579 30.6298H51.0071L37.165 30.5926C36.9973 30.5926 36.8672 30.7273 36.8672 30.8946C36.8672 31.0664 36.9973 31.2058 37.165 31.2058H56.6932C56.7345 31.2244 56.7671 31.2383 56.8042 31.2476L56.8692 31.2615C56.8883 31.2708 56.9111 31.2708 56.9343 31.2801C56.9807 31.294 57.023 31.3173 57.069 31.3405C57.0876 31.3451 57.1015 31.3544 57.1206 31.3684C57.1247 31.373 57.134 31.373 57.1391 31.3777C57.1763 31.4009 57.213 31.4288 57.2367 31.4566C57.2873 31.5031 57.3291 31.5635 57.357 31.6146V31.6192C57.3849 31.6796 57.3988 31.7353 57.3988 31.8004V31.8236C57.3941 31.8608 57.39 31.8979 57.3802 31.9258C57.3528 32.0326 57.2924 32.1302 57.213 32.2045C57.0458 32.3439 56.8093 32.4228 56.5585 32.4228H38.0703C37.9867 32.4228 37.8989 32.4693 37.8381 32.5389C37.787 32.5993 37.7684 32.6644 37.7684 32.7433C37.7684 32.9106 37.8989 33.0406 38.0657 33.0406H54.6256C54.6582 33.0406 54.7004 33.0406 54.7278 33.0453L54.8579 33.0778C54.8672 33.0778 54.8765 33.0824 54.8858 33.0871C54.9141 33.0964 54.9462 33.1057 54.9698 33.115L54.9926 33.1289C55.0205 33.1382 55.053 33.1521 55.0948 33.1753C55.1046 33.1846 55.1134 33.1893 55.1273 33.1986C55.1366 33.2032 55.1464 33.2079 55.1598 33.2218C55.1784 33.2357 55.2021 33.2543 55.2249 33.2775C55.2295 33.2822 55.2388 33.2961 55.2527 33.3054C55.2667 33.3286 55.2852 33.3519 55.2996 33.3751C55.3549 33.454 55.3874 33.5423 55.3786 33.6445C55.3735 33.7281 55.3456 33.8071 55.2996 33.886C55.2811 33.9139 55.2667 33.9371 55.2434 33.9604L55.2109 33.9975C55.197 34.0068 55.1835 34.0254 55.1649 34.044C55.1273 34.0719 55.0902 34.0997 55.0674 34.1137L55.0344 34.1322L54.9787 34.1601C54.9787 34.1601 54.974 34.1648 54.9698 34.1648C54.9369 34.1833 54.8997 34.1973 54.8672 34.2066L54.7696 34.2391C54.7464 34.2437 54.7325 34.2484 54.7093 34.253C54.7004 34.2577 54.686 34.2577 54.6674 34.2577H54.6628L54.6256 34.2623C54.5885 34.2669 54.5467 34.2716 54.5095 34.2716H38.4048C38.2422 34.2716 38.1075 34.4063 38.1075 34.5735C38.1075 34.7408 38.2375 34.8708 38.4048 34.8708L50.4125 34.8662H52.9813C53.3343 34.9358 53.5898 35.1867 53.5805 35.4561C53.5577 35.7952 53.1578 36.0878 52.6979 36.0878L50.3382 36.0832H50.078L38.3583 36.0646C38.1864 36.0646 38.0471 36.1993 38.0471 36.3666C38.0471 36.5384 38.1864 36.6685 38.3583 36.6685H49.4788C49.4932 36.6731 49.5118 36.6778 49.5392 36.6917C49.5671 36.6917 49.5949 36.701 49.6414 36.7103C49.6553 36.7149 49.6739 36.7196 49.7157 36.7382L49.7854 36.7707C49.8086 36.7753 49.8179 36.7846 49.8365 36.7939C49.8416 36.7939 49.8458 36.7986 49.8504 36.8032C49.8736 36.8171 49.8922 36.8311 49.9206 36.8543C49.934 36.8682 49.9577 36.8775 49.9712 36.8961L50.013 36.9333C50.0223 36.9426 50.0316 36.9565 50.0409 36.9704C50.0455 36.9797 50.0502 36.9844 50.0553 36.9937L50.078 37.0308C50.0924 37.0587 50.111 37.0958 50.1198 37.1423C50.1245 37.1516 50.1245 37.1655 50.1245 37.1841C50.1291 37.2027 50.1338 37.2213 50.1338 37.2445V37.2677C50.1338 37.3049 50.1245 37.3374 50.1152 37.3699V37.3746C50.111 37.4071 50.0966 37.4396 50.0827 37.4675L50.078 37.4721C50.0595 37.5093 50.0367 37.5464 50.0084 37.5789C49.9526 37.6533 49.8788 37.7137 49.79 37.7647C49.7668 37.7787 49.7482 37.7926 49.7255 37.8019C49.6925 37.8158 49.6646 37.8298 49.6321 37.8437C49.5949 37.853 49.5485 37.8669 49.5067 37.8762H49.4416C49.4324 37.8762 49.4277 37.8762 49.4184 37.8809C49.4091 37.8809 49.3957 37.8809 49.372 37.8855L37.6481 37.853C37.4804 37.853 37.3457 37.9877 37.3457 38.1596C37.3457 38.2897 37.4293 38.4104 37.5547 38.4476C37.6012 38.4755 37.6481 38.4847 37.6941 38.4847H45.7162C45.7302 38.494 45.7487 38.4987 45.7673 38.4987C46.1389 38.5684 46.3851 38.8099 46.3763 39.084C46.3619 39.2976 46.1993 39.502 45.9531 39.6135C45.8142 39.6646 45.6795 39.6925 45.549 39.6925H38.7304L36.2494 39.6832C36.0822 39.6832 35.9433 39.8179 35.9433 39.9851C35.9433 40.1338 36.045 40.2546 36.189 40.2824C36.2215 40.2917 36.2494 40.2917 36.2731 40.2917L40.5926 40.301C40.6303 40.301 40.6716 40.301 40.7046 40.3056L40.7413 40.3149C41.1036 40.3753 41.3591 40.6169 41.3405 40.9002C41.3405 40.9235 41.3405 40.9374 41.3359 40.9467C41.2666 41.2626 40.8713 41.4995 40.4486 41.4995H33.7039V38.9632L33.7643 38.9307C35.3947 38.0342 36.412 36.3387 36.412 34.5131C36.412 32.9013 35.6739 31.4241 34.3779 30.4579C34.252 30.3464 34.1828 30.2071 34.1916 30.0445C34.2102 29.7008 34.6004 29.4174 35.0649 29.4174H57.9706C58.2349 29.4174 58.4672 29.5057 58.6065 29.659C58.6344 29.6868 58.6576 29.7147 58.6762 29.7426C58.686 29.7658 58.6948 29.7797 58.7087 29.7983V29.8215L58.7227 29.8401C58.7273 29.8494 58.732 29.8587 58.732 29.868L58.7505 29.9516C58.7552 29.9702 58.7552 29.9981 58.7552 30.0213C58.7552 30.0352 58.7552 30.0399 58.7464 30.0584L58.732 30.1188V30.1281C58.732 30.1328 58.732 30.1421 58.7273 30.1513C58.7227 30.156 58.718 30.1746 58.7087 30.1978C58.6948 30.235 58.6716 30.2675 58.639 30.3046C58.6344 30.3139 58.6205 30.3325 58.5926 30.3604C58.5647 30.3975 58.5183 30.4347 58.4625 30.4719C58.4393 30.4858 58.4254 30.4997 58.4021 30.509C58.365 30.5322 58.319 30.5508 58.2628 30.5741C58.24 30.588 58.2163 30.5926 58.1745 30.6019L58.0956 30.6205C58.0584 30.6298 58.0166 30.6344 57.9892 30.6391L57.8819 30.6437L51.2579 30.6298ZM57.9794 35.7952C58.1931 35.8556 58.319 36.0693 58.2628 36.2829L57.6682 38.4847C57.6357 38.5823 57.5753 38.6706 57.4824 38.7263C57.39 38.7774 57.2827 38.7913 57.1805 38.7635L53.79 37.8484L53.7528 37.9598C53.3947 39.0096 52.9585 40.0455 52.4656 41.0303L52.415 41.1371L55.4478 42.9069C55.5361 42.958 55.6058 43.0463 55.6295 43.1485C55.6569 43.2507 55.6429 43.3575 55.5872 43.4504L54.4398 45.42C54.3283 45.6104 54.0868 45.6754 53.8963 45.564L50.8631 43.7942L50.798 43.8871C50.2313 44.7232 49.5856 45.5547 48.8796 46.3676L48.8006 46.4512L51.2904 48.941C51.3647 49.0153 51.4065 49.1175 51.4065 49.2243C51.4065 49.3312 51.3647 49.4287 51.2904 49.5031L49.6785 51.1149C49.5253 51.2729 49.2698 51.2729 49.1165 51.1149L46.6313 48.6251L46.5384 48.7041C45.6795 49.4612 44.7691 50.1534 43.8349 50.7758L43.7374 50.8362L45.4747 53.8927C45.5262 53.9856 45.5397 54.0925 45.5118 54.1947C45.484 54.2968 45.4189 54.3805 45.326 54.4362L42.9988 55.7601L41.0664 52.3645L40.9642 52.4156C40.0166 52.8754 39.0086 53.2842 37.9635 53.6326L37.8473 53.6698L38.7439 57.07C38.7671 57.1722 38.7531 57.279 38.7021 57.3673C38.6463 57.4602 38.5627 57.5252 38.461 57.5531L36.3609 58.1059L37.341 57.725C37.4948 57.6646 37.5691 57.4974 37.5175 57.3487L35.26 50.6736L35.2135 50.5203L35.1908 50.46C41.5593 48.8574 46.7939 44.3794 49.4324 38.494C49.4509 38.4894 49.4649 38.4894 49.4835 38.4847C49.5345 38.4801 49.581 38.4708 49.6228 38.4615C50.3103 38.3733 50.8259 37.8762 50.8584 37.2909C50.8682 37.0773 50.8078 36.8682 50.7005 36.6917H52.6979C53.4829 36.6917 54.1472 36.1482 54.1797 35.4886C54.189 35.2657 54.1333 35.0566 54.0222 34.8708H54.5978L54.5931 34.8801L57.9794 35.7952ZM35.8876 57.646L35.5991 57.1954L35.1624 56.5219V56.5172L35.0835 56.4011V56.3965L34.8001 55.9552L34.2148 55.0494L34.1219 54.8961L34.0852 54.845L33.9408 54.6127L33.7183 54.269C33.7085 53.7534 33.7085 53.1867 33.7039 52.6107V47.9191L34.5261 50.3578L34.5725 50.4971L34.605 50.5947L34.6287 50.6597L36.8579 57.2697L35.8876 57.646ZM36.3934 43.3389H33.7039V42.1126H36.6117L36.6721 42.1312C37.0252 42.1916 37.2811 42.4378 37.2667 42.7118C37.2481 43.0556 36.8579 43.3389 36.3934 43.3389ZM37.7126 42.1358H40.4723C41.1826 42.1358 41.8101 41.6806 41.9263 41.0907C41.9397 41.0535 41.9448 41.0164 41.9537 40.9792L41.9634 40.9235C41.9722 40.7098 41.9211 40.5054 41.8101 40.3149H45.4979C45.7348 40.3149 45.9722 40.2638 46.1715 40.1709C46.669 39.9758 47.0076 39.5531 47.0359 39.0886C47.0401 38.8842 46.9844 38.6845 46.8822 38.5033H49.149C46.5245 44.2726 41.373 48.653 35.1118 50.2184L33.7039 46.0424V43.9474H36.3934C37.1784 43.9474 37.8381 43.404 37.8706 42.7397C37.8845 42.526 37.8288 42.317 37.7126 42.1358ZM34.0197 30.9457C35.1532 31.8004 35.8035 33.0917 35.8035 34.5131C35.8035 36.0182 34.9957 37.4535 33.7039 38.2618V30.5601C33.7689 30.6809 33.853 30.797 33.9691 30.8992L34.0197 30.9457ZM33.5552 25.1299L32.3707 22.7841C32.2732 22.603 32.1152 22.459 31.9294 22.3893V8.90441C42.2881 9.84737 50.5012 18.3341 51.0029 28.8089H35.0649C34.4657 28.8089 33.9361 29.1294 33.7039 29.5846V25.7617C33.7039 25.5434 33.6528 25.3204 33.5552 25.1299ZM32.1385 54.8357C31.7994 54.8589 31.5439 55.1376 31.5439 55.4767V58.3939C31.5439 58.6122 31.3674 58.7887 31.1449 58.7887H28.8636C28.6453 58.7887 28.4688 58.6122 28.4688 58.3939V55.4767C28.4688 55.1376 28.2133 54.8589 27.8747 54.8357C27.4747 54.7985 27.0752 54.7567 26.6804 54.7056L26.7361 54.622H33.2254L33.2858 54.7103C32.9054 54.7614 32.5198 54.7985 32.1385 54.8357ZM26.3877 25.1299C26.2902 25.3204 26.2437 25.5434 26.2437 25.7617V29.515C26.1885 29.4174 26.1276 29.3291 26.0538 29.2455C25.7932 28.9668 25.3983 28.8089 24.9714 28.8089H9.01023C9.26107 23.5692 11.4215 18.6871 15.1562 14.957C18.6536 11.4685 23.1594 9.35963 28.0182 8.90441V22.38C27.8231 22.459 27.6652 22.603 27.5634 22.7841L26.3877 25.1299ZM26.2437 38.3175C24.8967 37.5093 24.0652 36.06 24.0652 34.5131C24.0652 33.0778 24.7527 31.726 25.9139 30.8992L25.965 30.862V30.8481C26.0812 30.7459 26.1699 30.6251 26.2437 30.4951V38.3175ZM26.2437 41.4995H18.4352C18.1705 41.4995 17.9382 41.4112 17.7989 41.2625C17.7111 41.1604 17.6688 41.0442 17.6781 40.9235C17.7013 40.5844 18.1054 40.301 18.5746 40.301H23.6657C23.8329 40.301 23.9723 40.1616 23.9723 39.9898C23.9723 39.8272 23.8329 39.6925 23.661 39.6925L13.9294 39.7111C13.674 39.7111 13.4371 39.6182 13.2838 39.4695C13.1909 39.3627 13.1398 39.2419 13.1449 39.1118C13.1537 38.8471 13.4143 38.5962 13.7344 38.5173H22.2629C22.4301 38.5173 22.5648 38.3826 22.5648 38.2107C22.5648 38.0435 22.4301 37.9134 22.2629 37.9134L10.5989 37.8995H10.1901C9.92532 37.8995 9.69306 37.8066 9.54488 37.644C9.44734 37.5464 9.40042 37.4257 9.41018 37.2956C9.41436 37.1469 9.49797 36.9983 9.63733 36.8868C9.6796 36.8543 9.72558 36.8311 9.77203 36.8078C9.80919 36.7846 9.851 36.766 9.89327 36.7521H9.89745C9.9021 36.7475 9.90674 36.7475 9.91603 36.7428C9.96249 36.7242 10.0094 36.7149 10.06 36.701C10.0833 36.6964 10.1111 36.6917 10.139 36.6917C10.1808 36.6871 10.2231 36.6824 10.2691 36.6824H21.6037C21.7756 36.6824 21.9145 36.5477 21.9145 36.3851C21.9145 36.2133 21.7756 36.0786 21.6037 36.0786L9.93926 36.0878H7.11501C6.85952 36.0878 6.62308 35.9949 6.47397 35.8417C6.37643 35.7255 6.32068 35.6094 6.33044 35.4886C6.34391 35.2006 6.64167 34.9405 6.99888 34.8708H9.60481L21.5247 34.8662C21.6869 34.8662 21.8216 34.7361 21.8216 34.5735C21.8216 34.4017 21.6869 34.2716 21.5247 34.2716H5.55935C5.51243 34.2716 5.46598 34.2669 5.42417 34.2623C5.38283 34.2577 5.34056 34.2484 5.29875 34.2344C5.26159 34.2251 5.22443 34.2159 5.18727 34.1973C5.12688 34.1787 5.07578 34.1508 5.03862 34.1276C5.03444 34.1229 5.02933 34.1229 5.02933 34.1183C4.98288 34.0904 4.94572 34.0579 4.9132 34.03C4.84352 33.9511 4.75991 33.8303 4.7836 33.6863C4.7836 33.6352 4.78779 33.6027 4.80637 33.5423C4.80637 33.5377 4.80637 33.5284 4.82495 33.4959C4.84353 33.4633 4.86675 33.4215 4.88998 33.3983L4.9132 33.3704V33.3658L4.94108 33.3379C4.96895 33.3008 5.0061 33.2729 5.06185 33.2404C5.07114 33.2311 5.08043 33.2218 5.11341 33.2079C5.11759 33.1986 5.12688 33.1986 5.13617 33.1893C5.15475 33.18 5.17798 33.166 5.20585 33.1568C5.24301 33.1382 5.27553 33.1289 5.32198 33.115C5.33591 33.1103 5.34985 33.1057 5.38701 33.0964C5.41488 33.0871 5.45204 33.0778 5.47062 33.0778L8.98282 33.0685H9.23784L21.8587 33.0639C22.0167 33.0639 22.1514 32.9431 22.1658 32.7759L22.1699 32.7294C22.1699 32.5622 22.0306 32.4228 21.8587 32.4228L9.16816 32.46H8.89874L8.1741 32.4646L5.05302 32.46H4.80218L3.44069 32.4553C3.25535 32.4553 3.06908 32.4089 2.92554 32.316C2.89256 32.2974 2.86469 32.2695 2.82799 32.2324C2.74856 32.1441 2.70211 32.0512 2.69328 31.9351C2.68817 31.9258 2.68817 31.9072 2.68817 31.87C2.68817 31.8515 2.69328 31.8329 2.69747 31.8143C2.70211 31.8004 2.70211 31.7864 2.71186 31.7539C2.71605 31.7353 2.72069 31.726 2.72534 31.7168L2.74392 31.6796C2.75321 31.661 2.76714 31.6378 2.78108 31.6192C2.78572 31.6099 2.79501 31.6006 2.79966 31.5867C2.81824 31.5635 2.83682 31.5402 2.86469 31.517C2.88838 31.4938 2.91114 31.4659 2.9483 31.438C2.97618 31.4195 3.00869 31.4009 3.0505 31.3777C3.05514 31.373 3.06025 31.373 3.06443 31.3684C3.0923 31.3498 3.12064 31.3405 3.1434 31.3312C3.18056 31.3173 3.22237 31.2987 3.27393 31.2894C3.31109 31.2801 3.34779 31.2708 3.39424 31.2615C3.41746 31.2569 3.4314 31.2569 3.46392 31.2569L3.50108 31.2476H22.7599C22.9318 31.2476 23.0618 31.1175 23.0618 30.9457C23.0618 30.7738 22.9318 30.6437 22.7599 30.6437H1.84322C1.58728 30.6437 1.35037 30.5508 1.20219 30.3975C1.1785 30.3743 1.15992 30.3464 1.13669 30.3186C1.11347 30.2861 1.10464 30.2675 1.09024 30.2303C1.08606 30.221 1.08095 30.2071 1.07631 30.1978L1.08095 30.1931L1.06748 30.1188C1.05773 30.1002 1.05773 30.0817 1.05773 30.0538C1.05773 30.0259 1.06237 30.0027 1.06748 29.9655C1.07166 29.9516 1.07631 29.9423 1.08606 29.9098C1.09024 29.8866 1.10464 29.8587 1.11811 29.8355L1.15063 29.789C1.19708 29.7101 1.26258 29.645 1.35966 29.5893C1.36895 29.5753 1.38289 29.5707 1.40611 29.5568C1.42934 29.5428 1.45303 29.5289 1.48973 29.5103C1.5176 29.4917 1.55058 29.4824 1.60586 29.4685C1.61979 29.4592 1.62954 29.4592 1.66159 29.4546C1.68947 29.4453 1.72709 29.436 1.76425 29.4313C1.80559 29.4221 1.86598 29.4174 1.93566 29.4174H24.9714C25.2311 29.4174 25.4634 29.5057 25.6167 29.659C25.7142 29.7658 25.7607 29.8819 25.7514 30.012C25.7467 30.156 25.6724 30.3046 25.5609 30.4068C24.2417 31.3498 23.452 32.8827 23.452 34.5131C23.452 36.3851 24.5018 38.0946 26.1834 38.9725L26.2437 39.005V41.4995ZM26.2437 43.3389H23.452C23.1965 43.3389 22.9596 43.246 22.8063 43.0974C22.7088 42.9905 22.6623 42.8744 22.6674 42.7397C22.6809 42.4517 22.9787 42.1916 23.3684 42.1265C23.387 42.1219 23.4014 42.1173 23.4195 42.1126H26.2437V43.3389ZM26.2437 46.1121L24.8553 50.2091C18.6215 48.6344 13.4882 44.2633 10.8729 38.5173H12.731C12.6149 38.6891 12.5498 38.8842 12.5405 39.0886C12.5271 39.372 12.6334 39.66 12.8425 39.8876C13.1077 40.1616 13.5067 40.3149 13.9294 40.3149H17.2647C17.1392 40.4915 17.0696 40.6958 17.0603 40.8956C17.0463 41.1836 17.1532 41.4669 17.3627 41.6945C17.6223 41.9779 18.0223 42.1358 18.4445 42.1358H22.2629C22.1374 42.3124 22.0724 42.5074 22.0631 42.7118C22.0496 43.0138 22.156 43.2971 22.365 43.5154C22.6391 43.7942 23.0344 43.9474 23.452 43.9474H26.2437V46.1121ZM26.2437 54.2922L26.0352 54.6081L25.8861 54.8403L25.8303 54.9239L25.7374 55.0726L24.5715 56.8703L24.539 56.9214V56.926L24.2788 57.3348V57.3394L24.0884 57.6228L24.0745 57.646L23.1036 57.2697L25.324 50.6922L25.3612 50.5854L25.3798 50.5343L25.4448 50.3485L26.2437 47.9841V54.2922ZM21.3529 57.4927C21.2502 57.4648 21.1666 57.3952 21.1155 57.3023C21.0602 57.214 21.0458 57.1072 21.0737 57.005L21.9893 53.614L21.882 53.5769C20.8229 53.2145 19.787 52.7825 18.8069 52.2901L18.7005 52.2344L16.9302 55.2677C16.8745 55.3606 16.7862 55.4256 16.6887 55.4535C16.5865 55.4814 16.4796 55.4674 16.3867 55.4117L14.4172 54.2643C14.3247 54.2086 14.2593 54.125 14.236 54.0228C14.2086 53.9159 14.2221 53.8091 14.2732 53.7208L16.043 50.6922L15.9454 50.6225C15.1093 50.0605 14.2778 49.4148 13.4747 48.7041L13.3813 48.6251L10.8962 51.1149C10.7433 51.2636 10.4874 51.2636 10.3341 51.1149L8.72223 49.5031C8.56894 49.3451 8.56894 49.0943 8.72223 48.941L11.212 46.4512L11.1335 46.3676C10.3806 45.5036 9.68377 44.5931 9.06179 43.6594L8.99629 43.5573L5.94489 45.2992C5.85152 45.3503 5.74468 45.3642 5.64249 45.3363C5.5403 45.3085 5.45204 45.2388 5.40559 45.1505L4.27682 43.1671C4.1658 42.9813 4.23037 42.7351 4.42546 42.6282L7.47315 40.8909L7.42159 40.7841C6.96172 39.8411 6.55294 38.8331 6.20456 37.7833L6.1674 37.6765L2.77225 38.5684C2.66495 38.5962 2.55858 38.5777 2.46521 38.5266C2.37695 38.4708 2.31192 38.3826 2.28405 38.285L1.7034 36.0786C1.64813 35.8649 1.77773 35.6466 1.98676 35.5955L5.02469 34.7965C5.07579 34.8151 5.12688 34.829 5.18262 34.8383C5.2523 34.8569 5.31269 34.8615 5.36843 34.8662C5.41953 34.8708 5.47527 34.8708 5.52636 34.8708H5.93514C5.81018 35.052 5.74004 35.2517 5.7261 35.4561C5.71263 35.7441 5.81901 36.0275 6.03269 36.2551C6.29328 36.5338 6.68765 36.6917 7.11501 36.6917H8.99629C8.87087 36.8682 8.79655 37.0773 8.78726 37.2863C8.76915 37.5697 8.88527 37.8623 9.09384 38.0853C9.35861 38.364 9.75856 38.5173 10.1715 38.5173H10.59C13.228 44.3794 18.4399 48.8388 24.7763 50.446L24.7392 50.5529L24.6923 50.7061L22.4487 57.3487C22.398 57.4974 22.4672 57.6646 22.6205 57.725L23.531 58.078L21.3529 57.4927ZM2.18185 31.3684H1.44328C1.24818 31.3684 1.08606 31.2244 1.05308 31.0386C1.28116 31.1733 1.55058 31.2476 1.84322 31.2476H2.25618C2.22877 31.2848 2.20508 31.3266 2.18185 31.3684ZM1.04379 29.069V28.6928C1.04379 28.4698 1.22495 28.2933 1.44328 28.2933H4.95966L4.96895 28.1771C5.04327 27.0577 5.18262 25.9521 5.3963 24.8977L5.41488 24.7815L2.02856 23.8664C1.81953 23.8107 1.69411 23.5924 1.74985 23.3787L2.3449 21.1815C2.40482 20.9679 2.62314 20.8425 2.83218 20.8982L6.22314 21.8133L6.2603 21.7018C6.62308 20.652 7.05462 19.6161 7.54701 18.6267L7.5981 18.5245L4.56482 16.7547C4.37901 16.6432 4.31398 16.4017 4.42546 16.2112L5.57282 14.2417C5.6843 14.0559 5.92631 13.9909 6.1163 14.1023L9.14494 15.8675L9.21508 15.7699C9.78132 14.9385 10.427 14.1023 11.1335 13.2941L11.212 13.2058L8.72223 10.7207C8.56894 10.5674 8.56894 10.3165 8.72223 10.1586L10.3341 8.54673C10.4874 8.39344 10.7433 8.39344 10.8962 8.54673L13.3813 11.0319L13.4747 10.9576C14.3289 10.2051 15.244 9.50363 16.1777 8.88583L16.2752 8.8208L14.5384 5.76893C14.4311 5.57848 14.4962 5.33693 14.6866 5.22545L16.6701 4.10132C16.7635 4.04557 16.8698 4.03629 16.972 4.05951C17.0696 4.09203 17.1578 4.15706 17.2136 4.24532L18.9462 7.29718L19.0489 7.24609C19.9965 6.78622 21.0045 6.37745 22.0496 6.02906L22.1607 5.98725L21.2688 2.59164C21.213 2.38261 21.3385 2.16429 21.5521 2.10855L23.7586 1.53255C23.8608 1.50468 23.9676 1.51861 24.061 1.56971C24.1488 1.62545 24.2185 1.70907 24.2417 1.81126L25.1382 5.21151L25.2497 5.18829C26.2674 4.99319 27.3075 4.85848 28.3526 4.79345L28.4084 4.7888L28.2086 5.24867L28.1111 5.467C28.0465 5.61099 28.0182 5.76893 28.0182 5.92686V8.65821C23.0948 9.1088 18.524 11.2409 14.9793 14.7805C11.1981 18.557 9.01023 23.5041 8.75939 28.8089H1.93566C1.61979 28.8089 1.30392 28.9018 1.0489 29.069H1.04379ZM28.6174 22.4961V5.92686C28.6174 5.85719 28.6314 5.77822 28.6592 5.71318L29.997 2.68919L31.2837 5.71318C31.3116 5.77822 31.3255 5.8479 31.3255 5.92222V22.4868C31.2559 22.5751 30.9725 22.8027 30.0481 22.8027C28.9797 22.8027 28.6778 22.5658 28.6174 22.4961ZM30.0481 23.3926C31.0236 23.3926 31.4974 23.1557 31.7204 22.9514C31.7668 22.9699 31.8086 23.0071 31.8365 23.0582L33.0257 25.3993C33.0819 25.5062 33.1093 25.627 33.1093 25.7617V46.061C33.0861 46.27 33.0861 46.637 33.0861 47.357C33.0953 48.142 33.0954 49.1732 33.1005 50.2138V50.9523C33.1046 51.5423 33.1093 52.109 33.1093 52.6107V54.0228H26.8481C26.8481 53.8138 26.8481 53.5165 26.8523 53.1495V52.4527C26.8523 52.2809 26.8569 52.1043 26.8569 51.9185C26.8616 51.7652 26.8616 51.612 26.8616 51.4587C26.8616 51.2961 26.8667 51.1381 26.8667 50.9756V50.2138C26.8667 49.1732 26.8755 48.142 26.8755 47.357C26.8755 46.4605 26.8755 46.0982 26.8337 45.9356V25.7617C26.8337 25.627 26.8616 25.5062 26.9219 25.3993L28.0972 23.0582C28.1255 23.0071 28.1627 22.9699 28.2086 22.9514C28.4409 23.165 28.9472 23.3926 30.0481 23.3926ZM59.215 29.4685V28.6928C59.215 28.3351 58.927 28.0471 58.5647 28.0471H55.2852C55.2156 27.067 55.0948 26.0915 54.9141 25.1439L58.0867 24.3077C58.43 24.2195 58.639 23.8664 58.5461 23.5181L57.9706 21.3163C57.8772 20.9679 57.5196 20.7635 57.1805 20.8517L54.0078 21.6879C53.678 20.7077 53.2925 19.7601 52.8651 18.8729L55.708 17.2518C55.8617 17.1681 55.9681 17.0288 56.015 16.8616C56.061 16.6943 56.0378 16.5178 55.9542 16.3692L54.83 14.3857C54.7418 14.237 54.6029 14.1302 54.4352 14.0838C54.268 14.0373 54.0914 14.0605 53.9433 14.1488L51.0907 15.7699C50.5054 14.8874 49.8504 14.0327 49.1448 13.2198L51.4674 10.8972C51.7182 10.6463 51.7182 10.2329 51.4674 9.98208L49.8551 8.37022C49.6042 8.11473 49.1908 8.11938 48.94 8.37022L46.6174 10.6928C45.8602 10.0332 45.0803 9.43396 44.3046 8.89512L45.9531 6.07087C46.0414 5.91758 46.0646 5.74106 46.0182 5.57848C45.9764 5.41125 45.8695 5.2719 45.7209 5.18364L43.7513 4.03164C43.6027 3.94339 43.4262 3.92016 43.2594 3.96661C43.0917 4.01306 42.9528 4.11526 42.8688 4.2639L41.2109 7.0928C40.2819 6.63757 39.3152 6.23344 38.3263 5.88506L39.1805 2.72171C39.2688 2.37797 39.069 2.02493 38.7253 1.93203L36.5239 1.33281C36.3562 1.291 36.1797 1.31423 36.0311 1.39784C35.8824 1.4861 35.7756 1.62545 35.7292 1.78803L34.8744 4.95138C33.8804 4.76093 32.8445 4.62157 31.7901 4.5519V1.26778C31.7901 0.910103 31.5021 0.622101 31.1449 0.622101H28.8636C28.511 0.622101 28.2179 0.910103 28.2179 1.26778V4.5519C27.2425 4.62157 26.2674 4.74235 25.3147 4.91887L24.4832 1.75087C24.4414 1.58364 24.3346 1.44429 24.1859 1.35603C24.0373 1.26778 23.8608 1.24455 23.694 1.28635L21.4918 1.867C21.1434 1.95526 20.939 2.31293 21.0272 2.65667L21.8587 5.82932C20.8786 6.15912 19.9356 6.54467 19.0438 6.97203L17.4272 4.12455C17.339 3.9759 17.1996 3.86906 17.0371 3.82261C16.8698 3.77616 16.6933 3.79939 16.5447 3.883L14.5658 5.01177C14.2546 5.18829 14.1431 5.58312 14.3196 5.89435L15.9408 8.74183C15.0629 9.33176 14.2086 9.98673 13.3957 10.6928L11.0731 8.37022C10.8223 8.11938 10.4131 8.11473 10.1576 8.37022L8.54571 9.98208C8.29487 10.2329 8.29487 10.6463 8.54571 10.8972L10.8683 13.2198C10.2087 13.9769 9.60481 14.7527 9.07062 15.5377L6.24172 13.884C5.93514 13.7029 5.53565 13.805 5.35914 14.1163L4.20714 16.0858C4.03062 16.3924 4.13282 16.7919 4.4394 16.9684L7.27294 18.6221C6.81307 19.5511 6.4043 20.5219 6.0652 21.5114L2.89721 20.6566C2.55347 20.5637 2.19579 20.7681 2.10289 21.1119L1.50831 23.3137C1.42005 23.6574 1.61979 24.0151 1.96353 24.108L5.12688 24.9627C4.93689 25.9568 4.80219 26.9926 4.7274 28.0424H1.44328C1.08606 28.0424 0.798064 28.3351 0.798064 28.6928V29.2688C0.756257 29.3106 0.713986 29.3524 0.676824 29.3988C0.54676 29.5893 0.468255 29.7983 0.453855 30.012C0.444565 30.2628 0.523997 30.5183 0.686113 30.7273L0.760437 30.811L0.798064 30.8481V30.9689C0.798064 31.3266 1.08606 31.6192 1.44328 31.6192H2.08895C2.07548 31.6703 2.06572 31.726 2.06108 31.7679C2.05179 31.8004 2.05179 31.819 2.05179 31.8236C2.04714 31.8747 2.05179 31.9211 2.05644 31.9769C2.07966 32.2184 2.18185 32.446 2.35837 32.6319C2.43269 32.7062 2.51166 32.7759 2.58598 32.8223C2.83682 32.9942 3.13922 33.0824 3.46903 33.0824L4.33256 33.0778C4.20714 33.2543 4.14675 33.4494 4.13746 33.6445C4.12399 33.9371 4.23037 34.2205 4.4394 34.4435C4.50908 34.5131 4.5834 34.5782 4.66747 34.6339L1.92637 35.3493C1.58263 35.4422 1.3736 35.7952 1.4665 36.1389L2.0425 38.35C2.0843 38.5126 2.19161 38.652 2.33979 38.7402C2.48843 38.8285 2.66495 38.8517 2.83218 38.8053L6.00482 37.9738C6.33462 38.9586 6.72063 39.9015 7.14752 40.7887L4.30051 42.4099C3.99346 42.5864 3.88198 42.9813 4.0585 43.2925L5.18727 45.276C5.27088 45.4246 5.41023 45.5314 5.57792 45.5779C5.74468 45.6243 5.9212 45.6011 6.06985 45.5175L8.92197 43.8917C9.50773 44.7696 10.1627 45.6243 10.8683 46.4419L8.54571 48.7645C8.29487 49.0153 8.29487 49.4241 8.54571 49.6796L10.1576 51.2914C10.4038 51.5376 10.8265 51.5376 11.0731 51.2914L13.3957 48.9689C14.1529 49.6238 14.9282 50.2277 15.7085 50.7665L14.0595 53.5954C13.9713 53.7441 13.948 53.9159 13.9898 54.0832C14.0367 54.2504 14.1431 54.3898 14.2918 54.4827L16.2567 55.63C16.41 55.7136 16.5818 55.7368 16.7537 55.695C16.9163 55.6532 17.0603 55.5464 17.1439 55.3978L18.798 52.5642C19.7271 53.0241 20.6974 53.4329 21.6869 53.7766L20.8321 56.9399C20.7857 57.1025 20.8094 57.279 20.8972 57.4323C20.9808 57.581 21.1206 57.6878 21.2874 57.7343L23.4892 58.3242C23.6564 58.3706 23.8329 58.3474 23.982 58.2638L23.9908 58.2545L24.0796 58.2917C24.0982 58.2963 24.1163 58.301 24.1348 58.3103C24.1585 58.3149 24.1771 58.3149 24.1906 58.3149C24.2932 58.3149 24.3857 58.2685 24.4414 58.1802L26.3836 55.1748L26.476 55.0215L26.5317 54.9379C26.9684 54.9983 27.405 55.0447 27.851 55.0819C28.06 55.1005 28.2179 55.2677 28.2179 55.4767V58.3939C28.2179 58.7516 28.511 59.0396 28.8636 59.0396H31.1449C31.5021 59.0396 31.7901 58.7516 31.7901 58.3939V55.4767C31.7901 55.2677 31.9526 55.1005 32.1617 55.0819C32.589 55.0447 33.0164 54.9983 33.4391 54.9379L33.4716 54.9936L33.5692 55.1516L35.2883 57.8225L35.5206 58.1802C35.5526 58.2266 35.5898 58.2638 35.6367 58.2824C35.6827 58.3056 35.7292 58.3149 35.7663 58.3149C35.79 58.3149 35.8086 58.3149 35.8272 58.3103H35.8313C35.98 58.3939 36.157 58.4171 36.3191 58.3753L38.5209 57.7946C38.6881 57.7482 38.8279 57.646 38.9204 57.4927C39.0045 57.3441 39.0272 57.1722 38.9854 57.005L38.1539 53.8323C39.1294 53.5025 40.0724 53.117 40.9642 52.6943L42.9059 56.0992L45.4473 54.6499C45.5955 54.5616 45.7069 54.4269 45.7534 54.2597C45.7957 54.0925 45.7771 53.9159 45.693 53.7673L44.0672 50.9198C44.9498 50.3299 45.8045 49.6749 46.6174 48.9689L48.94 51.2914C49.1908 51.5423 49.6042 51.5423 49.8551 51.2914L51.4623 49.6796C51.5877 49.5541 51.6527 49.3962 51.6527 49.2243C51.6527 49.0478 51.5877 48.8852 51.4623 48.7645L49.1448 46.4419C49.8044 45.6847 50.4078 44.909 50.942 44.124L53.7714 45.7776C54.0775 45.9588 54.477 45.852 54.6535 45.5454L55.8055 43.5758C55.982 43.2693 55.8803 42.8744 55.5691 42.6933L52.7397 41.0396C53.1996 40.1105 53.6037 39.1351 53.9474 38.1503L57.1154 39.005C57.2827 39.0515 57.4545 39.0282 57.6036 38.94C57.7569 38.8517 57.8633 38.7124 57.9098 38.5498L58.5043 36.348C58.5926 36.0042 58.3929 35.6466 58.0496 35.5537L55.1366 34.764C55.6383 34.5735 55.9913 34.1555 56.015 33.6677C56.0285 33.4587 55.9681 33.245 55.8617 33.0639H56.5209C56.9343 33.0639 57.3338 32.9152 57.6036 32.6551C57.8173 32.4786 57.9655 32.2417 58.0166 31.9862C58.0305 31.9351 58.0352 31.8886 58.0398 31.8329V31.8004C58.0398 31.74 58.0352 31.6796 58.0259 31.6192H58.5647C58.927 31.6192 59.215 31.3266 59.215 30.9689V30.5276C59.3033 30.3743 59.3498 30.2117 59.3544 30.0445C59.3683 29.8448 59.3172 29.6404 59.215 29.4685Z" fill="white"/>
<path d="M58.9695 30.8341V30.9688C58.9695 31.1871 58.7884 31.3683 58.5654 31.3683H57.9527C57.9341 31.3264 57.9197 31.2846 57.8965 31.2475C58.2124 31.2428 58.5189 31.1499 58.7698 30.992C58.8395 30.9502 58.8952 30.9037 58.9509 30.848C58.9556 30.848 58.9649 30.8387 58.9695 30.8341Z" fill="white"/>
<path d="M24.7752 50.446L24.738 50.5529L24.6911 50.7061L22.4475 57.3487C22.3968 57.4974 22.4661 57.6646 22.6194 57.725L23.5298 58.078L21.3517 57.4927C21.249 57.4648 21.1654 57.3952 21.1143 57.3023C21.059 57.214 21.0451 57.1072 21.0725 57.005L21.9881 53.614L21.8812 53.5768C20.8217 53.2145 19.7863 52.7825 18.8057 52.2901L18.6993 52.2344L16.929 55.2677C16.8733 55.3606 16.7855 55.4256 16.688 55.4535C16.5853 55.4814 16.4789 55.4674 16.3856 55.4117L14.416 54.2643C14.3236 54.2086 14.2581 54.125 14.2353 54.0228C14.2074 53.9159 14.2209 53.8091 14.2725 53.7208L16.0418 50.6922L15.9443 50.6225C15.1081 50.0605 14.2767 49.4148 13.4735 48.7041L13.3806 48.6251L10.895 51.1149C10.7422 51.2636 10.4862 51.2636 10.3329 51.1149L8.72105 49.503C8.56776 49.3451 8.56776 49.0943 8.72105 48.941L11.2113 46.4512L11.1324 46.3676C10.3798 45.5036 9.68306 44.5931 9.06061 43.6594L8.99512 43.5573L5.94372 45.2992C5.85081 45.3503 5.74351 45.3642 5.64178 45.3363C5.53959 45.3085 5.45086 45.2388 5.40488 45.1505L4.27564 43.1671C4.16462 42.9813 4.22965 42.7351 4.42429 42.6282L7.47197 40.8909L7.42087 40.7841C6.96054 39.8411 6.55223 38.8331 6.20384 37.7833L6.16622 37.6765L2.77108 38.5684C2.66377 38.5962 2.5574 38.5777 2.4645 38.5266C2.37577 38.4708 2.31121 38.3826 2.28287 38.285L1.70223 36.0786C1.64695 35.8649 1.77655 35.6466 1.98558 35.5955L5.02351 34.7965C5.07507 34.8151 5.1257 34.829 5.18145 34.8383C5.25159 34.8569 5.31198 34.8615 5.36772 34.8662C5.41835 34.8708 5.47409 34.8708 5.52565 34.8708H5.93396C5.80901 35.052 5.73933 35.2517 5.72493 35.4561C5.71146 35.7441 5.81783 36.0275 6.03151 36.2551C6.2921 36.5338 6.68694 36.6917 7.11383 36.6917H8.99512C8.87016 36.8682 8.79584 37.0773 8.78608 37.2863C8.76797 37.5697 8.8841 37.8623 9.09266 38.0853C9.3579 38.364 9.75739 38.5173 10.1708 38.5173H10.5889C13.2273 44.3794 18.4387 48.8388 24.7752 50.446Z" fill="white"/>
<path d="M33.2851 54.7102C32.9047 54.7613 32.5191 54.7984 32.1377 54.8356C31.7986 54.8588 31.5432 55.1375 31.5432 55.4766V58.3938C31.5432 58.6121 31.3666 58.7886 31.1441 58.7886H28.8629C28.6446 58.7886 28.4681 58.6121 28.4681 58.3938V55.4766C28.4681 55.1375 28.2126 54.8588 27.874 54.8356C27.474 54.7984 27.0745 54.7566 26.6797 54.7055L26.7354 54.6219H33.2247L33.2851 54.7102Z" fill="white"/>
<path d="M58.2619 36.283L57.6674 38.4848C57.6344 38.5824 57.5744 38.6706 57.4811 38.7264C57.3886 38.7775 57.2818 38.7914 57.1796 38.7635L53.7886 37.8484L53.7515 37.9599C53.3938 39.0097 52.9572 40.0456 52.4648 41.0304L52.4137 41.1372L55.4465 42.907C55.5352 42.9581 55.6044 43.0464 55.6281 43.1486C55.656 43.2508 55.6416 43.3576 55.5859 43.4505L54.439 45.42C54.327 45.6105 54.0859 45.6755 53.8955 45.564L50.8617 43.7942L50.7972 43.8871C50.2305 44.7233 49.5843 45.5548 48.8787 46.3677L48.7998 46.4513L51.2891 48.9411C51.3634 49.0154 51.4052 49.1176 51.4052 49.2244C51.4052 49.3313 51.3634 49.4288 51.2891 49.5031L49.6777 51.115C49.5239 51.2729 49.2689 51.2729 49.1156 51.115L46.6305 48.6252L46.5376 48.7042C45.6782 49.4613 44.7678 50.1535 43.8336 50.7759L43.7361 50.8363L45.4738 53.8928C45.5249 53.9857 45.5384 54.0925 45.511 54.1947C45.4826 54.2969 45.4181 54.3805 45.3247 54.4363L42.998 55.7602L41.0651 52.3645L40.9634 52.4156C40.0158 52.8755 39.0078 53.2843 37.9626 53.6327L37.8465 53.6698L38.7425 57.0701C38.7658 57.1723 38.7523 57.2791 38.7012 57.3674C38.6454 57.4603 38.5618 57.5253 38.4596 57.5532L36.36 58.106L37.3402 57.7251C37.4934 57.6647 37.5678 57.4974 37.5167 57.3488L35.2587 50.6737L35.2127 50.5204L35.1895 50.46C41.558 48.8575 46.793 44.3795 49.431 38.4941C49.4496 38.4895 49.464 38.4895 49.4826 38.4848C49.5337 38.4802 49.5801 38.4709 49.6215 38.4616C50.3094 38.3733 50.8246 37.8763 50.8576 37.291C50.8668 37.0773 50.8065 36.8683 50.6996 36.6918H52.697C53.4821 36.6918 54.1463 36.1483 54.1788 35.4887C54.1877 35.2657 54.1319 35.0567 54.0209 34.8709H54.5964L54.5923 34.8802L57.9786 35.7953C58.1923 35.8557 58.3177 36.0693 58.2619 36.283Z" fill="white"/>
<path d="M58.9688 28.6929V29.1621L58.9503 29.1481C58.8996 29.1063 58.8388 29.0599 58.7691 29.0227C58.5368 28.8834 58.2628 28.809 57.9706 28.809H51.2537C50.7469 18.1995 42.4279 9.59669 31.9294 8.65837V5.92238C31.9294 5.76909 31.8969 5.62509 31.8365 5.48109L31.744 5.25812L31.6739 5.09089L31.5578 4.83541L31.3906 4.44522L30.4755 2.28057C30.3918 2.09477 30.206 1.9647 29.997 1.9647C29.7884 1.97864 29.6068 2.08548 29.5232 2.28057L28.4688 4.65889V1.26793C28.4688 1.04961 28.6453 0.873095 28.8636 0.873095H31.1448C31.3673 0.873095 31.5438 1.04961 31.5438 1.26793V4.78431L31.66 4.7936C32.7795 4.86793 33.885 5.01193 34.9441 5.22096L35.056 5.24418L35.9707 1.85787C35.9985 1.75567 36.0636 1.66742 36.1569 1.61167C36.2494 1.56058 36.3562 1.54664 36.4584 1.57916L38.6602 2.16909C38.8693 2.22483 38.9947 2.4478 38.9389 2.65683L38.0238 6.0478L38.1311 6.08496C39.1898 6.44728 40.2215 6.87928 41.2058 7.37166L41.3126 7.42276L43.0824 4.38947C43.1381 4.30122 43.2222 4.23619 43.3286 4.20831C43.4261 4.18044 43.5335 4.19438 43.6259 4.24548L45.5954 5.39747C45.6883 5.45321 45.7487 5.53683 45.7771 5.63902C45.8091 5.74121 45.7905 5.84805 45.7399 5.94096L43.9696 8.97424L44.0672 9.03463C44.9033 9.60134 45.7348 10.2517 46.5384 10.9577L46.6313 11.032L49.1165 8.54689C49.2698 8.3936 49.5252 8.3936 49.6785 8.54689L51.2904 10.1588C51.4437 10.3167 51.4437 10.5675 51.2904 10.7208L48.8006 13.206L48.8796 13.2942C49.6321 14.1582 50.3288 15.064 50.9467 16.007L51.0163 16.0999L54.0682 14.3626C54.1569 14.3115 54.2679 14.2976 54.3706 14.3255C54.4723 14.3533 54.5559 14.4184 54.607 14.5113L55.7358 16.4901C55.7915 16.583 55.8055 16.6898 55.773 16.792C55.7456 16.8989 55.6801 16.9825 55.5872 17.0336L52.5399 18.7709L52.5915 18.8777C53.0509 19.816 53.4601 20.8287 53.8085 21.8738L53.8452 21.9853L57.2455 21.0981C57.4499 21.0377 57.6728 21.1678 57.7286 21.3814L58.3092 23.5832C58.365 23.7969 58.2349 24.0152 58.0259 24.071L54.6256 24.9582L54.6488 25.0743C54.8439 26.087 54.9786 27.1321 55.0437 28.1773L55.053 28.2934H58.5647C58.7877 28.2934 58.9688 28.47 58.9688 28.6929Z" fill="white"/>
<path d="M28.4076 4.78872L28.2078 5.24859L28.1103 5.46691C28.0457 5.61091 28.0174 5.76885 28.0174 5.92678V8.65813C23.094 9.10871 18.5231 11.2408 14.9784 14.7804C11.1973 18.557 9.00941 23.504 8.75857 28.8088H1.93484C1.61897 28.8088 1.3031 28.9017 1.04808 29.0689H1.04297V28.6927C1.04297 28.4697 1.22413 28.2932 1.44245 28.2932H4.9593L4.96812 28.1771C5.04245 27.0576 5.1818 25.952 5.39548 24.8976L5.41406 24.7815L2.02774 23.8664C1.81871 23.8106 1.69329 23.5923 1.74903 23.3786L2.34408 21.1815C2.40446 20.9678 2.62232 20.8424 2.83135 20.8981L6.22231 21.8132L6.25948 21.7017C6.62226 20.6519 7.0538 19.6161 7.54618 18.6266L7.59728 18.5244L4.56399 16.7546C4.37865 16.6432 4.31316 16.4016 4.42464 16.2112L5.57199 14.2416C5.68348 14.0558 5.92549 13.9908 6.11548 14.1023L9.14411 15.8674L9.21426 15.7699C9.7805 14.9384 10.4262 14.1023 11.1327 13.294L11.2112 13.2057L8.72141 10.7206C8.56812 10.5673 8.56812 10.3165 8.72141 10.1585L10.3333 8.54665C10.4866 8.39336 10.7425 8.39336 10.8953 8.54665L13.3805 11.0318L13.4739 10.9575C14.3281 10.205 15.2432 9.50355 16.1769 8.88575L16.2744 8.82071L14.5376 5.76885C14.4303 5.5784 14.4953 5.33685 14.6858 5.22536L16.6693 4.10124C16.7626 4.0455 16.869 4.03621 16.9712 4.05943C17.0687 4.09195 17.157 4.15698 17.2127 4.24524L18.9454 7.29711L19.048 7.24601C19.9957 6.78614 21.0037 6.37737 22.0488 6.02898L22.1598 5.98717L21.268 2.59156C21.2122 2.38253 21.3376 2.16421 21.5513 2.10847L23.7578 1.53247C23.86 1.5046 23.9668 1.51853 24.0602 1.56963C24.148 1.62537 24.2176 1.70898 24.2409 1.81118L25.1374 5.21143L25.2489 5.1882C26.2666 4.99311 27.3067 4.8584 28.3518 4.79337L28.4076 4.78872Z" fill="white"/>
<path d="M195.73 46.8469H183.617V41.2565H195.73V46.8469Z" fill="white"/>
<path d="M214.365 46.8469H197.594V41.2565H214.365V46.8469Z" fill="white"/>
<path d="M240.454 46.8469H216.229V41.2565H240.454V46.8469Z" fill="white"/>
<path d="M80.0159 22.3769C80.4321 22.016 80.6407 21.5398 80.6407 20.9476C80.6407 20.3372 80.4321 19.8471 80.0159 19.4769C79.5997 19.1072 79.0492 18.9223 78.3645 18.9223H76.0341C75.9412 18.9223 75.8952 18.9683 75.8952 19.0607V22.7792C75.8952 22.8721 75.9412 22.918 76.0341 22.918H78.3645C79.0492 22.918 79.5997 22.7373 80.0159 22.3769ZM82.6943 15.2452C83.693 15.7724 84.465 16.5217 85.0113 17.493C85.5566 18.4643 85.8298 19.5791 85.8298 20.837C85.8298 22.0763 85.5422 23.168 84.9695 24.1114C84.3958 25.0548 83.5908 25.786 82.5554 26.3034C81.5186 26.8218 80.3257 27.0806 78.9754 27.0806H76.0341C75.9412 27.0806 75.8952 27.127 75.8952 27.2195V33.463C75.8952 33.5926 75.858 33.6948 75.7842 33.7682C75.7098 33.8425 75.6081 33.8792 75.4785 33.8792H71.0944C70.9648 33.8792 70.8626 33.8425 70.7892 33.7682C70.7154 33.6948 70.6777 33.5926 70.6777 33.463V14.8703C70.6777 14.7412 70.7154 14.6395 70.7892 14.5651C70.8626 14.4913 70.9648 14.4541 71.0944 14.4541H79.2253C80.5385 14.4541 81.6946 14.718 82.6943 15.2452Z" fill="white"/>
<path d="M93.4334 27.2471H96.9024C97.0134 27.2471 97.0501 27.1914 97.0134 27.0808L95.2371 20.8647C95.2185 20.8089 95.1907 20.7815 95.154 20.7815C95.1168 20.7815 95.0885 20.8089 95.0704 20.8647L93.3224 27.0808C93.3038 27.1914 93.341 27.2471 93.4334 27.2471ZM98.8724 33.5185L98.262 31.3539C98.2244 31.2805 98.1789 31.2433 98.1232 31.2433H92.2405C92.1848 31.2433 92.1383 31.2805 92.1016 31.3539L91.4908 33.5185C91.4355 33.7591 91.2781 33.8795 91.0193 33.8795H86.2738C85.9408 33.8795 85.82 33.7224 85.9134 33.4075L91.7686 14.7874C91.842 14.5654 91.9994 14.4544 92.2405 14.4544H98.1232C98.3633 14.4544 98.5208 14.5654 98.5946 14.7874L104.45 33.4075C104.468 33.4447 104.478 33.5004 104.478 33.5743C104.478 33.7782 104.348 33.8795 104.089 33.8795H99.3444C99.0852 33.8795 98.9282 33.7591 98.8724 33.5185Z" fill="white"/>
<path d="M112.498 19.061V22.3079C112.498 22.4004 112.544 22.4468 112.637 22.4468H115.245C115.837 22.4468 116.318 22.2847 116.688 21.9609C117.058 21.6376 117.243 21.2163 117.243 20.6984C117.243 20.1619 117.058 19.7317 116.688 19.4079C116.318 19.0846 115.837 18.9225 115.245 18.9225H112.637C112.544 18.9225 112.498 18.9685 112.498 19.061ZM117.021 33.5743L113.969 26.5257C113.931 26.4523 113.876 26.4152 113.803 26.4152H112.637C112.544 26.4152 112.498 26.4611 112.498 26.5536V33.4632C112.498 33.5928 112.461 33.695 112.387 33.7689C112.313 33.8428 112.211 33.8795 112.082 33.8795H107.697C107.568 33.8795 107.466 33.8428 107.392 33.7689C107.318 33.695 107.281 33.5928 107.281 33.4632V14.8706C107.281 14.7414 107.318 14.6397 107.392 14.5654C107.466 14.492 107.568 14.4544 107.697 14.4544H116.106C117.364 14.4544 118.469 14.714 119.421 15.2315C120.374 15.7499 121.115 16.4759 121.642 17.4101C122.169 18.3442 122.433 19.4219 122.433 20.6426C122.433 21.8638 122.131 22.9322 121.531 23.8478C120.929 24.7638 120.101 25.4346 119.047 25.8601C118.954 25.8972 118.927 25.9618 118.964 26.0542L122.488 33.3801C122.525 33.4911 122.543 33.5562 122.543 33.5743C122.543 33.6672 122.506 33.741 122.433 33.7963C122.358 33.852 122.266 33.8795 122.155 33.8795H117.493C117.252 33.8795 117.095 33.7782 117.021 33.5743Z" fill="white"/>
<path d="M136.446 14.5651C136.519 14.4913 136.622 14.4541 136.751 14.4541H141.136C141.265 14.4541 141.367 14.4913 141.441 14.5651C141.514 14.6395 141.552 14.7412 141.552 14.8703V33.463C141.552 33.5926 141.514 33.6948 141.441 33.7682C141.367 33.8425 141.265 33.8792 141.136 33.8792H136.945C136.723 33.8792 136.557 33.7868 136.446 33.6019L130.785 24.1667C130.747 24.1114 130.711 24.0882 130.674 24.0974C130.636 24.1072 130.618 24.1485 130.618 24.2224L130.674 33.463C130.674 33.5926 130.636 33.6948 130.563 33.7682C130.489 33.8425 130.387 33.8792 130.258 33.8792H125.873C125.744 33.8792 125.641 33.8425 125.568 33.7682C125.494 33.6948 125.457 33.5926 125.457 33.463V14.8703C125.457 14.7412 125.494 14.6395 125.568 14.5651C125.641 14.4913 125.744 14.4541 125.873 14.4541H130.064C130.285 14.4541 130.452 14.547 130.563 14.7314L136.196 24.1667C136.233 24.2224 136.27 24.2456 136.307 24.2359C136.344 24.227 136.362 24.1852 136.362 24.1114L136.335 14.8703C136.335 14.7412 136.372 14.6395 136.446 14.5651Z" fill="white"/>
<path d="M151.902 27.2471H155.371C155.482 27.2471 155.519 27.1914 155.482 27.0808L153.706 20.8647C153.687 20.8089 153.659 20.7815 153.623 20.7815C153.586 20.7815 153.557 20.8089 153.539 20.8647L151.791 27.0808C151.773 27.1914 151.81 27.2471 151.902 27.2471ZM157.341 33.5185L156.731 31.3539C156.693 31.2805 156.648 31.2433 156.592 31.2433H150.709C150.654 31.2433 150.607 31.2805 150.57 31.3539L149.96 33.5185C149.904 33.7591 149.747 33.8795 149.488 33.8795H144.743C144.41 33.8795 144.289 33.7224 144.382 33.4075L150.237 14.7874C150.311 14.5654 150.468 14.4544 150.709 14.4544H156.592C156.832 14.4544 156.99 14.5654 157.063 14.7874L162.919 33.4075C162.937 33.4447 162.946 33.5004 162.946 33.5743C162.946 33.7782 162.817 33.8795 162.558 33.8795H157.813C157.554 33.8795 157.397 33.7591 157.341 33.5185Z" fill="white"/>
<path d="M178.652 14.4541H182.981C183.11 14.4541 183.212 14.4913 183.286 14.5651C183.36 14.639 183.397 14.7412 183.397 14.8703V33.463C183.397 33.5926 183.36 33.6943 183.286 33.7682C183.212 33.8425 183.11 33.8792 182.981 33.8792H178.596C178.466 33.8792 178.365 33.8425 178.291 33.7682C178.217 33.6943 178.18 33.5926 178.18 33.463V23.3895C178.18 23.3161 178.161 23.2743 178.124 23.2646C178.087 23.2557 178.05 23.2785 178.014 23.3342L176.126 26.4144C176.015 26.5993 175.849 26.6918 175.627 26.6918H173.518C173.296 26.6918 173.129 26.5993 173.018 26.4144L171.131 23.3342C171.094 23.2785 171.057 23.2557 171.02 23.2646C170.983 23.2743 170.965 23.3161 170.965 23.3895V33.463C170.965 33.5926 170.927 33.6943 170.854 33.7682C170.78 33.8425 170.678 33.8792 170.549 33.8792H166.164C166.035 33.8792 165.932 33.8425 165.859 33.7682C165.785 33.6943 165.748 33.5926 165.748 33.463V14.8703C165.748 14.7412 165.785 14.639 165.859 14.5651C165.932 14.4913 166.035 14.4541 166.164 14.4541H170.493C170.715 14.4541 170.881 14.547 170.993 14.7314L174.489 20.3651C174.545 20.4756 174.6 20.4756 174.656 20.3651L178.152 14.7314C178.263 14.547 178.429 14.4541 178.652 14.4541Z" fill="white"/>
<path d="M186.784 33.7682C186.711 33.6943 186.674 33.5926 186.674 33.463V14.8703C186.674 14.7412 186.711 14.639 186.784 14.5651C186.858 14.4913 186.96 14.4541 187.09 14.4541H191.475C191.604 14.4541 191.705 14.4913 191.78 14.5651C191.853 14.639 191.89 14.7412 191.89 14.8703V33.463C191.89 33.5926 191.853 33.6943 191.78 33.7682C191.705 33.8425 191.604 33.8792 191.475 33.8792H187.09C186.96 33.8792 186.858 33.8425 186.784 33.7682Z" fill="white"/>
<path d="M200.381 19.061V22.3079C200.381 22.4004 200.427 22.4468 200.519 22.4468H203.128C203.72 22.4468 204.201 22.2847 204.571 21.9609C204.941 21.6376 205.126 21.2163 205.126 20.6984C205.126 20.1619 204.941 19.7317 204.571 19.4079C204.201 19.0846 203.72 18.9225 203.128 18.9225H200.519C200.427 18.9225 200.381 18.9685 200.381 19.061ZM204.904 33.5743L201.852 26.5257C201.814 26.4523 201.759 26.4152 201.685 26.4152H200.519C200.427 26.4152 200.381 26.4611 200.381 26.5536V33.4632C200.381 33.5928 200.343 33.695 200.27 33.7689C200.196 33.8428 200.094 33.8795 199.964 33.8795H195.58C195.451 33.8795 195.348 33.8428 195.275 33.7689C195.201 33.695 195.164 33.5928 195.164 33.4632V14.8706C195.164 14.7414 195.201 14.6397 195.275 14.5654C195.348 14.492 195.451 14.4544 195.58 14.4544H203.988C205.246 14.4544 206.351 14.714 207.304 15.2315C208.257 15.7499 208.997 16.4759 209.525 17.4101C210.052 18.3442 210.316 19.4219 210.316 20.6426C210.316 21.8638 210.014 22.9322 209.414 23.8478C208.812 24.7638 207.984 25.4346 206.93 25.8601C206.837 25.8972 206.809 25.9618 206.847 26.0542L210.371 33.3801C210.408 33.4911 210.426 33.5562 210.426 33.5743C210.426 33.6672 210.389 33.741 210.316 33.7963C210.241 33.852 210.149 33.8795 210.038 33.8795H205.376C205.135 33.8795 204.977 33.7782 204.904 33.5743Z" fill="white"/>
<path d="M213.45 33.7682C213.377 33.6943 213.34 33.5926 213.34 33.463V14.8703C213.34 14.7412 213.377 14.639 213.45 14.5651C213.524 14.4913 213.626 14.4541 213.756 14.4541H218.141C218.27 14.4541 218.371 14.4913 218.446 14.5651C218.519 14.639 218.556 14.7412 218.556 14.8703V33.463C218.556 33.5926 218.519 33.6943 218.446 33.7682C218.371 33.8425 218.27 33.8792 218.141 33.8792H213.756C213.626 33.8792 213.524 33.8425 213.45 33.7682Z" fill="white"/>
<path d="M234.736 14.4544H239.065C239.194 14.4544 239.295 14.4915 239.37 14.5654C239.444 14.6392 239.481 14.7414 239.481 14.8706V33.4632C239.481 33.5928 239.444 33.6946 239.37 33.7684C239.295 33.8428 239.194 33.8795 239.065 33.8795H234.68C234.55 33.8795 234.449 33.8428 234.375 33.7684C234.301 33.6946 234.264 33.5928 234.264 33.4632V23.3898C234.264 23.3164 234.245 23.2746 234.208 23.2648C234.171 23.256 234.134 23.2788 234.098 23.3345L232.21 26.4147C232.099 26.5996 231.933 26.692 231.711 26.692H229.602C229.38 26.692 229.213 26.5996 229.102 26.4147L227.215 23.3345C227.178 23.2788 227.141 23.256 227.104 23.2648C227.067 23.2746 227.049 23.3164 227.049 23.3898V33.4632C227.049 33.5928 227.011 33.6946 226.938 33.7684C226.864 33.8428 226.762 33.8795 226.633 33.8795H222.248C222.119 33.8795 222.016 33.8428 221.943 33.7684C221.869 33.6946 221.832 33.5928 221.832 33.4632V14.8706C221.832 14.7414 221.869 14.6392 221.943 14.5654C222.016 14.4915 222.119 14.4544 222.248 14.4544H226.577C226.799 14.4544 226.965 14.5473 227.077 14.7317L230.573 20.3653C230.629 20.4759 230.684 20.4759 230.74 20.3653L234.236 14.7317C234.347 14.5473 234.513 14.4544 234.736 14.4544Z" fill="white"/>
<path d="M76.3843 42.3855C76.6955 42.0914 76.8507 41.7064 76.8507 41.2293C76.8507 40.7411 76.6955 40.3472 76.3843 40.048C76.074 39.7484 75.6639 39.5984 75.1534 39.5984H73.0412C72.985 39.5984 72.9576 39.6267 72.9576 39.682V42.7432C72.9576 42.7989 72.985 42.8263 73.0412 42.8263H75.1534C75.6639 42.8263 76.074 42.6795 76.3843 42.3855ZM77.4332 38.0181C77.9874 38.3177 78.4175 38.7418 78.7222 39.2909C79.027 39.8399 79.1798 40.4694 79.1798 41.1791C79.1798 41.8778 79.0218 42.4932 78.706 43.026C78.3892 43.5584 77.9456 43.9718 77.3751 44.2654C76.8033 44.5594 76.1456 44.7062 75.4037 44.7062H73.0412C72.985 44.7062 72.9576 44.7341 72.9576 44.7893V49.0322C72.9576 49.0875 72.9376 49.1344 72.8995 49.1734C72.8605 49.2125 72.8136 49.2315 72.7579 49.2315H70.8111C70.7558 49.2315 70.7084 49.2125 70.6694 49.1734C70.6304 49.1344 70.6113 49.0875 70.6113 49.0322V37.7687C70.6113 37.7129 70.6304 37.666 70.6694 37.627C70.7084 37.5884 70.7558 37.5689 70.8111 37.5689H75.5036C76.2348 37.5689 76.8776 37.7185 77.4332 38.0181Z" fill="white"/>
<path d="M84.3033 39.6818V42.5269C84.3033 42.5822 84.3307 42.6101 84.3869 42.6101H86.566C87.0314 42.6101 87.4114 42.4712 87.7054 42.1939C87.9994 41.917 88.1462 41.5566 88.1462 41.1125C88.1462 40.6689 87.9994 40.3056 87.7054 40.0227C87.4114 39.7398 87.0314 39.5986 86.566 39.5986H84.3869C84.3307 39.5986 84.3033 39.6265 84.3033 39.6818ZM88.1128 49.0817L86.0336 44.4733C86.0118 44.4291 85.9779 44.4068 85.9337 44.4068H84.3869C84.3307 44.4068 84.3033 44.4342 84.3033 44.49V49.032C84.3033 49.0878 84.2843 49.1347 84.2452 49.1732C84.2062 49.2122 84.1588 49.2318 84.1036 49.2318H82.1568C82.1015 49.2318 82.0541 49.2122 82.016 49.1732C81.977 49.1347 81.957 49.0878 81.957 49.032V37.7852C81.957 37.7299 81.977 37.6825 82.016 37.6435C82.0541 37.6049 82.1015 37.5854 82.1568 37.5854H86.9153C87.6246 37.5854 88.2489 37.7299 88.7868 38.0179C89.3252 38.3068 89.7405 38.7165 90.0345 39.2493C90.3285 39.7817 90.4753 40.3971 90.4753 41.0958C90.4753 41.8501 90.2867 42.4963 89.91 43.0342C89.5328 43.5721 89.0056 43.9521 88.3297 44.1736C88.2744 44.1964 88.2573 44.235 88.28 44.2902L90.5427 48.9986C90.5645 49.0432 90.5752 49.0766 90.5752 49.0984C90.5752 49.1872 90.5143 49.2318 90.3926 49.2318H88.346C88.2354 49.2318 88.1574 49.1816 88.1128 49.0817Z" fill="white"/>
<path d="M101.531 39.5403C101.492 39.5793 101.445 39.5984 101.39 39.5984H95.9324C95.8771 39.5984 95.8502 39.6267 95.8502 39.682V42.2605C95.8502 42.3163 95.8771 42.3437 95.9324 42.3437H99.5096C99.5654 42.3437 99.6123 42.3632 99.6513 42.4022C99.6894 42.4412 99.7094 42.4881 99.7094 42.5434V44.1571C99.7094 44.2129 99.6894 44.2598 99.6513 44.2988C99.6123 44.3378 99.5654 44.3569 99.5096 44.3569H95.9324C95.8771 44.3569 95.8502 44.3848 95.8502 44.44V47.1356C95.8502 47.1909 95.8771 47.2183 95.9324 47.2183H101.39C101.445 47.2183 101.492 47.2378 101.531 47.2768C101.57 47.3158 101.589 47.3628 101.589 47.418V49.0322C101.589 49.0875 101.57 49.1344 101.531 49.1734C101.492 49.2125 101.445 49.2315 101.39 49.2315H93.7032C93.6479 49.2315 93.601 49.2125 93.562 49.1734C93.523 49.1344 93.5039 49.0875 93.5039 49.0322V37.7854C93.5039 37.7301 93.523 37.6827 93.562 37.6437C93.601 37.6047 93.6479 37.5856 93.7032 37.5856H101.39C101.445 37.5856 101.492 37.6047 101.531 37.6437C101.57 37.6827 101.589 37.7301 101.589 37.7854V39.3991C101.589 39.4544 101.57 39.5018 101.531 39.5403Z" fill="white"/>
<path d="M112.562 39.5403C112.523 39.5793 112.475 39.5984 112.42 39.5984H106.98C106.924 39.5984 106.897 39.6267 106.897 39.682V42.2605C106.897 42.3163 106.924 42.3437 106.98 42.3437H110.557C110.612 42.3437 110.659 42.3632 110.698 42.4022C110.737 42.4412 110.756 42.4881 110.756 42.5434V44.1571C110.756 44.2129 110.737 44.2598 110.698 44.2988C110.659 44.3378 110.612 44.3569 110.557 44.3569H106.98C106.924 44.3569 106.897 44.3848 106.897 44.44V49.0322C106.897 49.0875 106.878 49.1344 106.839 49.1734C106.8 49.2125 106.753 49.2315 106.697 49.2315H104.751C104.695 49.2315 104.648 49.2125 104.61 49.1734C104.571 49.1344 104.551 49.0875 104.551 49.0322V37.7854C104.551 37.7301 104.571 37.6827 104.61 37.6437C104.648 37.6047 104.695 37.5856 104.751 37.5856H112.42C112.475 37.5856 112.523 37.6047 112.562 37.6437C112.601 37.6827 112.62 37.7301 112.62 37.7854V39.3991C112.62 39.4544 112.601 39.5018 112.562 39.5403Z" fill="white"/>
<path d="M123.227 39.5403C123.187 39.5793 123.14 39.5984 123.085 39.5984H117.628C117.572 39.5984 117.545 39.6267 117.545 39.682V42.2605C117.545 42.3163 117.572 42.3437 117.628 42.3437H121.205C121.261 42.3437 121.308 42.3632 121.347 42.4022C121.385 42.4412 121.405 42.4881 121.405 42.5434V44.1571C121.405 44.2129 121.385 44.2598 121.347 44.2988C121.308 44.3378 121.261 44.3569 121.205 44.3569H117.628C117.572 44.3569 117.545 44.3848 117.545 44.44V47.1356C117.545 47.1909 117.572 47.2183 117.628 47.2183H123.085C123.14 47.2183 123.187 47.2378 123.227 47.2768C123.266 47.3158 123.285 47.3628 123.285 47.418V49.0322C123.285 49.0875 123.266 49.1344 123.227 49.1734C123.187 49.2125 123.14 49.2315 123.085 49.2315H115.398C115.343 49.2315 115.296 49.2125 115.257 49.1734C115.218 49.1344 115.199 49.0875 115.199 49.0322V37.7854C115.199 37.7301 115.218 37.6827 115.257 37.6437C115.296 37.6047 115.343 37.5856 115.398 37.5856H123.085C123.14 37.5856 123.187 37.6047 123.227 37.6437C123.266 37.6827 123.285 37.7301 123.285 37.7854V39.3991C123.285 39.4544 123.266 39.5018 123.227 39.5403Z" fill="white"/>
<path d="M126.305 49.1734C126.266 49.1349 126.246 49.0875 126.246 49.0322V37.7854C126.246 37.7301 126.266 37.6827 126.305 37.6437C126.343 37.6052 126.391 37.5856 126.446 37.5856H128.393C128.448 37.5856 128.495 37.6052 128.534 37.6437C128.573 37.6827 128.592 37.7301 128.592 37.7854V49.0322C128.592 49.0875 128.573 49.1349 128.534 49.1734C128.495 49.2125 128.448 49.2315 128.393 49.2315H126.446C126.391 49.2315 126.343 49.2125 126.305 49.1734Z" fill="white"/>
<path d="M140.13 37.6437C140.169 37.6827 140.188 37.7301 140.188 37.7854V39.4154C140.188 39.4711 140.169 39.5185 140.13 39.557C140.091 39.5961 140.044 39.6151 139.989 39.6151H137.011C136.955 39.6151 136.927 39.643 136.927 39.6983V49.0322C136.927 49.0875 136.908 49.1344 136.869 49.1734C136.83 49.2125 136.783 49.2315 136.728 49.2315H134.781C134.726 49.2315 134.679 49.2125 134.64 49.1734C134.601 49.1344 134.582 49.0875 134.582 49.0322V39.6983C134.582 39.643 134.554 39.6151 134.499 39.6151H131.604C131.547 39.6151 131.501 39.5961 131.462 39.557C131.423 39.5185 131.404 39.4711 131.404 39.4154V37.7854C131.404 37.7301 131.423 37.6827 131.462 37.6437C131.501 37.6052 131.547 37.5856 131.604 37.5856H139.989C140.044 37.5856 140.091 37.6052 140.13 37.6437Z" fill="white"/>
<path d="M144.988 48.8652C144.339 48.5326 143.835 48.0639 143.474 47.4596C143.113 46.8548 142.934 46.1589 142.934 45.3716V37.7847C142.934 37.7294 142.953 37.6825 142.992 37.6434C143.031 37.6044 143.077 37.5849 143.133 37.5849H145.079C145.134 37.5849 145.182 37.6044 145.221 37.6434C145.26 37.6825 145.279 37.7294 145.279 37.7847V45.3883C145.279 45.9759 145.46 46.4502 145.82 46.8107C146.18 47.1711 146.654 47.3514 147.242 47.3514C147.83 47.3514 148.305 47.1711 148.665 46.8107C149.025 46.4502 149.205 45.9759 149.205 45.3883V37.7847C149.205 37.7294 149.225 37.6825 149.264 37.6434C149.303 37.6044 149.35 37.5849 149.405 37.5849H151.352C151.407 37.5849 151.455 37.6044 151.494 37.6434C151.532 37.6825 151.552 37.7294 151.552 37.7847V45.3716C151.552 46.1589 151.371 46.8548 151.011 47.4596C150.65 48.0639 150.146 48.5326 149.497 48.8652C148.848 49.1978 148.096 49.3646 147.242 49.3646C146.389 49.3646 145.637 49.1978 144.988 48.8652Z" fill="white"/>
<path d="M157.159 39.6818V42.5269C157.159 42.5822 157.186 42.6101 157.242 42.6101H159.421C159.887 42.6101 160.267 42.4712 160.561 42.1939C160.855 41.917 161.002 41.5566 161.002 41.1125C161.002 40.6689 160.855 40.3056 160.561 40.0227C160.267 39.7398 159.887 39.5986 159.421 39.5986H157.242C157.186 39.5986 157.159 39.6265 157.159 39.6818ZM160.968 49.0817L158.889 44.4733C158.867 44.4291 158.833 44.4068 158.789 44.4068H157.242C157.186 44.4068 157.159 44.4342 157.159 44.49V49.032C157.159 49.0878 157.14 49.1347 157.101 49.1732C157.062 49.2122 157.014 49.2318 156.959 49.2318H155.012C154.957 49.2318 154.91 49.2122 154.871 49.1732C154.832 49.1347 154.812 49.0878 154.812 49.032V37.7852C154.812 37.7299 154.832 37.6825 154.871 37.6435C154.91 37.6049 154.957 37.5854 155.012 37.5854H159.771C160.48 37.5854 161.104 37.7299 161.642 38.0179C162.181 38.3068 162.596 38.7165 162.89 39.2493C163.184 39.7817 163.331 40.3971 163.331 41.0958C163.331 41.8501 163.142 42.4963 162.765 43.0342C162.388 43.5721 161.861 43.9521 161.185 44.1736C161.13 44.1964 161.113 44.235 161.135 44.2902L163.398 48.9986C163.42 49.0432 163.431 49.0766 163.431 49.0984C163.431 49.1872 163.37 49.2318 163.248 49.2318H161.201C161.091 49.2318 161.013 49.1816 160.968 49.0817Z" fill="white"/>
<path d="M169.702 45.5546H172.63C172.697 45.5546 172.719 45.5212 172.697 45.4548L171.199 40.5133C171.188 40.4696 171.172 40.4501 171.149 40.4552C171.127 40.4612 171.11 40.4803 171.1 40.5133L169.635 45.4548C169.624 45.5212 169.646 45.5546 169.702 45.5546ZM173.795 49.065L173.296 47.4345C173.273 47.3904 173.246 47.3681 173.213 47.3681H169.12C169.086 47.3681 169.059 47.3904 169.036 47.4345L168.554 49.065C168.521 49.176 168.449 49.2318 168.338 49.2318H166.225C166.159 49.2318 166.109 49.2122 166.075 49.1732C166.041 49.1347 166.036 49.0766 166.059 48.9986L169.653 37.7517C169.685 37.6412 169.758 37.5854 169.868 37.5854H172.48C172.591 37.5854 172.664 37.6412 172.697 37.7517L176.291 48.9986C176.302 49.0209 176.307 49.0483 176.307 49.0817C176.307 49.1816 176.246 49.2318 176.124 49.2318H174.011C173.9 49.2318 173.829 49.176 173.795 49.065Z" fill="white"/>
</svg>
